<svg xmlns="http://www.w3.org/2000/svg" viewBox="0 0 16 16"><style>.icon-canvas-transparent{opacity:0;fill:#2d2d30}.icon-vs-out{fill:#2d2d30}.icon-vs-bg{fill:#c5c5c5}.icon-vs-fg{fill:#2b282e}.icon-vs-action-blue{fill:#75beff}</style><path class="icon-canvas-transparent" d="M16 16H0V0h16v16z" id="canvas"/><path class="icon-vs-out" d="M14 4.556V13c0 .97-.701 2-2 2H4c-.97 0-2-.701-2-2V6.414l-2 2V3.586L3.586 0h.828l1 1h4.646L14 4.556z" id="outline" style="display: none;"/><path class="icon-vs-bg" d="M13 5v8s-.035 1-1.035 1h-8S3 14 3 13V9h1v4h8V6H9V3H7.414l-1-1h3.227L13 5z" id="iconBg"/><path class="icon-vs-fg" d="M12 6v7H4V9h2V6.414l2 2V3.586L7.414 3H9v3h3z" id="iconFg" style="display: none;"/><path class="icon-vs-action-blue" d="M7 6L5 4v4H3V4L1 6V4l3-3 3 3v2z" id="colorAction"/></svg>