<svg xmlns="http://www.w3.org/2000/svg" viewBox="0 0 50 50" xmlns:xlink="http://www.w3.org/1999/xlink" xmlns:svg="http://www.w3.org/2000/svg">
    <g>
        <path fill="#0072c6" d="M3.167 13h22.667v4H3.167zm5 10h25.667v4H8.167zm-5 10h22.667v4H3.167z" />
        <circle r="3.9" fill="#b8d432" cx="4" cy="35" />
        <ellipse fill="#b8d432" cx="4" cy="15" rx="3.9" ry="3.9" transform="rotate(-45.001 4 15)" />
        <ellipse fill="#59b4d9" cx="9" cy="25" rx="3.9" ry="3.9" transform="rotate(-45.001 9 25)" />
        <path fill="#0072c6" d="M24 20V10l8 5zm0 20V30l8 5zm8-10V20l8 5zm17.2 8.6h-4.8c-.5 0-.8.3-.8.8v4H7V50h42.2c.5 0 .8-.3.8-.8v-9.8c0-.5-.3-.8-.8-.8zM49.281 0H7v6.7h36.381v4.2c0 .5.3.8 1 .8h4.8c.5 0 .8-.3.8-.8V.9c.1-.6-.2-.9-.7-.9z" />
    </g>
</svg>
